<?xml version="1.0" encoding="UTF-8"?> <svg xmlns="http://www.w3.org/2000/svg" width="100%" height="100%" viewBox="0 0 32 32" fill="none"><path d="M14.6667 24.6663C14.6667 28.7164 11.3834 31.9997 7.33333 31.9997C3.28325 31.9997 0 28.7164 0 24.6663C0 20.6163 3.28325 17.333 7.33333 17.333C11.3834 17.333 14.6667 20.6163 14.6667 24.6663Z" fill="url(#paint0_linear_7601_167460)"></path><path d="M6.75375 9.29292L0.816406 21.2966C1.62375 19.9035 3.10746 18.9997 4.83346 18.9997C6.76744 18.9997 8.32422 20.1951 9.13448 21.8524L12.8076 29.2559C13.5869 30.879 15.246 31.9996 17.1668 31.9997L27.6668 31.9997L25.4883 31.0906L14.9121 10.6144C13.7658 9.22134 12.0284 8.33301 10.0836 8.33301C8.85957 8.33301 7.71776 8.68485 6.75375 9.29292Z" fill="url(#paint1_linear_7601_167460)"></path><path d="M21.4143 3.5868L30.3541 21.3858C30.8659 22.385 31.4736 23.831 31.4736 23.831L31.4727 23.8322C31.783 24.6378 31.9725 25.542 32.0001 26.5C32.0002 26.7222 32.0002 26.9444 32.0002 27.1666C32.0002 29.836 30.0228 32 27.5836 32C25.8854 32 24.4111 30.9512 23.672 29.4132L14.9906 12.2194C14.1267 10.3204 12.2128 9 9.99049 9C8.47197 9 7.09743 9.6165 6.10352 10.6129L9.5861 3.58663C10.6985 1.45511 12.9294 0 15.5002 0C18.071 0 20.302 1.45518 21.4143 3.5868Z" fill="url(#paint2_linear_7601_167460)"></path><defs><linearGradient id="paint0_linear_7601_167460" x1="-2.9881" y1="29.041" x2="11.745" y2="24.7808" gradientUnits="userSpaceOnUse"><stop offset="0.141549" stop-color="#9B52AA"></stop><stop offset="0.9988" stop-color="#4F2757"></stop></linearGradient><linearGradient id="paint1_linear_7601_167460" x1="18.347" y1="27.1345" x2="7.83145" y2="11.133" gradientUnits="userSpaceOnUse"><stop stop-color="#B75CC9"></stop><stop offset="1" stop-color="#E8AAF4"></stop></linearGradient><linearGradient id="paint2_linear_7601_167460" x1="13.0981" y1="5.08333" x2="27.3798" y2="32.6725" gradientUnits="userSpaceOnUse"><stop stop-color="#CB6ADE"></stop><stop offset="0.435975" stop-color="#8D479B"></stop><stop offset="1" stop-color="#4F2757"></stop></linearGradient></defs></svg> 