<svg xmlns="http://www.w3.org/2000/svg" width="48" height="48" fill="currentColor"><path fill="url(#i4d416a-a)" d="M5 10a5 5 0 0 1 5-5h28a5 5 0 0 1 5 5v28a5 5 0 0 1-5 5H10a5 5 0 0 1-5-5z"/><path fill="url(#i4d416a-b)" fill-opacity=".2" d="M5 10a5 5 0 0 1 5-5h28a5 5 0 0 1 5 5v28a5 5 0 0 1-5 5H10a5 5 0 0 1-5-5z"/><path fill="url(#i4d416a-c)" fill-rule="evenodd" d="M38 6H10a4 4 0 0 0-4 4v28a4 4 0 0 0 4 4h28a4 4 0 0 0 4-4V10a4 4 0 0 0-4-4M10 5a5 5 0 0 0-5 5v28a5 5 0 0 0 5 5h28a5 5 0 0 0 5-5V10a5 5 0 0 0-5-5z" clip-rule="evenodd"/><path fill="url(#i4d416a-d)" d="M14.5 21a2.5 2.5 0 1 0 0-5 2.5 2.5 0 0 0 0 5"/><path fill="url(#i4d416a-e)" d="M24 21a2.5 2.5 0 1 0 0-5 2.5 2.5 0 0 0 0 5"/><path fill="url(#i4d416a-f)" d="M26.5 29.5a2.5 2.5 0 1 1-5 0 2.5 2.5 0 0 1 5 0"/><path fill="url(#i4d416a-g)" d="M14.5 32a2.5 2.5 0 1 0 0-5 2.5 2.5 0 0 0 0 5"/><path fill="url(#i4d416a-h)" d="M36 18.5a2.5 2.5 0 1 1-5 0 2.5 2.5 0 0 1 5 0"/><defs><linearGradient id="i4d416a-a" x1="15.556" x2="20.362" y1="5" y2="43.455" gradientUnits="userSpaceOnUse"><stop stop-color="#fff"/><stop offset="1" stop-color="#EBEBEB"/></linearGradient><linearGradient id="i4d416a-c" x1="17.271" x2="22.387" y1="5" y2="43.373" gradientUnits="userSpaceOnUse"><stop stop-color="#BBB"/><stop offset="1" stop-color="#888"/></linearGradient><linearGradient id="i4d416a-d" x1="12" x2="26.769" y1="16" y2="38.154" gradientUnits="userSpaceOnUse"><stop stop-color="#7751B8"/><stop offset="1" stop-color="#5A409C"/></linearGradient><linearGradient id="i4d416a-e" x1="12" x2="26.769" y1="16" y2="38.154" gradientUnits="userSpaceOnUse"><stop stop-color="#7751B8"/><stop offset="1" stop-color="#5A409C"/></linearGradient><linearGradient id="i4d416a-f" x1="12" x2="26.769" y1="16" y2="38.154" gradientUnits="userSpaceOnUse"><stop stop-color="#7751B8"/><stop offset="1" stop-color="#5A409C"/></linearGradient><linearGradient id="i4d416a-g" x1="12" x2="26.769" y1="16" y2="38.154" gradientUnits="userSpaceOnUse"><stop stop-color="#7751B8"/><stop offset="1" stop-color="#5A409C"/></linearGradient><linearGradient id="i4d416a-h" x1="12" x2="26.769" y1="16" y2="38.154" gradientUnits="userSpaceOnUse"><stop stop-color="#7751B8"/><stop offset="1" stop-color="#5A409C"/></linearGradient><radialGradient id="i4d416a-b" cx="0" cy="0" r="1" gradientTransform="rotate(56.31 -5.347 23.46)scale(36.1557 31.2886)" gradientUnits="userSpaceOnUse"><stop offset=".177" stop-color="#fff"/><stop offset="1" stop-color="#B8B8B8"/></radialGradient></defs></svg>