<svg xmlns="http://www.w3.org/2000/svg" width="48" height="48" fill="currentColor"><path fill="url(#ie71011-a)" d="M8 8a5 5 0 0 1 5-5h22a5 5 0 0 1 5 5v32a5 5 0 0 1-5 5H13a5 5 0 0 1-5-5z"/><path fill="url(#ie71011-b)" fill-opacity=".2" d="M8 8a5 5 0 0 1 5-5h22a5 5 0 0 1 5 5v32a5 5 0 0 1-5 5H13a5 5 0 0 1-5-5z"/><path fill="url(#ie71011-c)" fill-rule="evenodd" d="M35 4H13a4 4 0 0 0-4 4v32a4 4 0 0 0 4 4h22a4 4 0 0 0 4-4V8a4 4 0 0 0-4-4M13 3a5 5 0 0 0-5 5v32a5 5 0 0 0 5 5h22a5 5 0 0 0 5-5V8a5 5 0 0 0-5-5z" clip-rule="evenodd"/><path fill="url(#ie71011-d)" d="M24.837 34H16a2 2 0 0 1-2-2v-9.11a2 2 0 0 1 .662-1.486l8-7.2a2 2 0 0 1 2.677 0l7.999 7.2A2 2 0 0 1 34 22.891v5.113a1.5 1.5 0 0 0-.5-.084c-.62 0-1.16.36-1.39.93-.01.04-.06.09-.11.13a.4.4 0 0 1-.11-.13c-.22-.55-.77-.91-1.39-.91s-1.17.35-1.39.9c-.01.04-.06.09-.11.13a.4.4 0 0 1-.11-.13c-.23-.56-.76-.93-1.4-.93-.62.01-1.16.38-1.38.96-.04.09-.06.13-.06.13a.7.7 0 0 1-.13.04c-.8.18-1.31.99-1.13 1.79a1.48 1.48 0 0 0 1.266 1.157L26.05 32a.7.7 0 0 1-.13.04A1.505 1.505 0 0 0 24.837 34"/><path fill="url(#ie71011-e)" d="M34.75 31h-.01a.502.502 0 0 0 .1-.99c-.47-.11-.71-.31-.89-.78a.49.49 0 0 0-.46-.32c-.2 0-.38.12-.46.31-.15.38-.6.78-1.04.78s-.88-.41-1.03-.78c-.16-.38-.78-.38-.93 0s-.6.78-1.04.78-.88-.41-1.03-.78c-.08-.19-.26-.33-.47-.31-.2 0-.39.13-.46.32-.18.47-.41.67-.89.78-.27.06-.44.33-.38.6s.33.43.6.38c.5-.11.88-.32 1.17-.65.37.38.86.66 1.46.66s1.13-.29 1.51-.69c.37.39.91.69 1.49.69s1.1-.28 1.48-.66c.29.33.67.54 1.17.65.031.008.08.01.1.01h-.01z"/><path fill="url(#ie71011-f)" fill-rule="evenodd" d="M34.64 33.99a.502.502 0 0 0 .2-.98c-.47-.11-.71-.31-.89-.78a.49.49 0 0 0-.46-.32c-.2 0-.38.12-.46.31-.15.38-.6.78-1.04.78s-.88-.41-1.03-.78c-.16-.38-.78-.38-.93 0s-.6.78-1.04.78-.88-.41-1.03-.78c-.08-.19-.26-.33-.47-.31-.2 0-.39.13-.46.32-.18.47-.41.67-.89.78-.27.06-.44.33-.38.6s.33.43.6.38c.5-.11.88-.32 1.17-.65.37.38.86.66 1.46.66s1.13-.29 1.51-.69c.37.39.91.69 1.49.69s1.1-.28 1.48-.66c.29.33.67.54 1.17.65m.1.01h.01-.02z" clip-rule="evenodd"/><defs><linearGradient id="ie71011-a" x1="16.889" x2="23.785" y1="3" y2="45.035" gradientUnits="userSpaceOnUse"><stop stop-color="#fff"/><stop offset="1" stop-color="#EBEBEB"/></linearGradient><linearGradient id="ie71011-c" x1="18.333" x2="25.663" y1="3" y2="44.884" gradientUnits="userSpaceOnUse"><stop stop-color="#BBB"/><stop offset="1" stop-color="#888"/></linearGradient><linearGradient id="ie71011-d" x1="14" x2="34.289" y1="13.691" y2="34.902" gradientUnits="userSpaceOnUse"><stop stop-color="#3477EA"/><stop offset="1" stop-color="#1D53A4"/></linearGradient><linearGradient id="ie71011-e" x1="14" x2="34.289" y1="13.691" y2="34.902" gradientUnits="userSpaceOnUse"><stop stop-color="#3477EA"/><stop offset="1" stop-color="#1D53A4"/></linearGradient><linearGradient id="ie71011-f" x1="14" x2="34.289" y1="13.691" y2="34.902" gradientUnits="userSpaceOnUse"><stop stop-color="#3477EA"/><stop offset="1" stop-color="#1D53A4"/></linearGradient><radialGradient id="ie71011-b" cx="0" cy="0" r="1" gradientTransform="matrix(16.88908 33.24991 -25.17214 12.78603 18.222 13.938)" gradientUnits="userSpaceOnUse"><stop offset=".177" stop-color="#fff"/><stop offset="1" stop-color="#B8B8B8"/></radialGradient></defs></svg>