<svg xmlns="http://www.w3.org/2000/svg" width="48" height="48" fill="none"><path fill="url(#i03ea2c-idaba5e-paint0_linear_64423_1136)" d="M5 10a5 5 0 0 1 5-5h28a5 5 0 0 1 5 5v28a5 5 0 0 1-5 5H10a5 5 0 0 1-5-5z"/><path fill="url(#i03ea2c-idaba5e-paint1_radial_64423_1136)" fill-opacity=".2" d="M5 10a5 5 0 0 1 5-5h28a5 5 0 0 1 5 5v28a5 5 0 0 1-5 5H10a5 5 0 0 1-5-5z"/><path fill="url(#i03ea2c-idaba5e-paint2_linear_64423_1136)" fill-rule="evenodd" d="M38 6H10a4 4 0 0 0-4 4v28a4 4 0 0 0 4 4h28a4 4 0 0 0 4-4V10a4 4 0 0 0-4-4M10 5a5 5 0 0 0-5 5v28a5 5 0 0 0 5 5h28a5 5 0 0 0 5-5V10a5 5 0 0 0-5-5z" clip-rule="evenodd"/><path fill="url(#i03ea2c-idaba5e-paint3_linear_64423_1136)" d="M19.778 33.998a.682.682 0 0 1-.673-.78c.888-6.014 6.042-10.469 12.11-10.469h1.227c.838 0 1.452-.5 1.452-1.34l.07-.33v5.835c0 .92-.744 1.665-1.662 1.665h-.689a5.82 5.82 0 0 0-5.563 4.12l-.22.71a.83.83 0 0 1-.793.59h-5.259"/><path fill="url(#i03ea2c-idaba5e-paint4_linear_64423_1136)" d="M19.778 33.998a.682.682 0 0 1-.673-.78c.888-6.014 6.042-10.469 12.11-10.469h1.227c.838 0 1.452-.5 1.452-1.34l.07-.33v5.835c0 .92-.744 1.665-1.662 1.665h-.689a5.82 5.82 0 0 0-5.563 4.12l-.22.71a.83.83 0 0 1-.793.59h-5.259"/><path fill="url(#i03ea2c-idaba5e-paint5_linear_64423_1136)" d="M14.833 27.334a.836.836 0 0 1-.833-.835v-5c0-.46.374-.835.833-.835h14.97c.458 0 .832.375.832.835v5c0 .46-.374.835-.833.835z"/><path fill="url(#i03ea2c-idaba5e-paint6_radial_64423_1136)" d="M14.833 27.334a.836.836 0 0 1-.833-.835v-5c0-.46.374-.835.833-.835h14.97c.458 0 .832.375.832.835v5c0 .46-.374.835-.833.835z"/><path fill="url(#i03ea2c-idaba5e-paint7_linear_64423_1136)" d="M19.788 14a.693.693 0 0 0-.684.79c.889 6.124 6.128 10.664 12.305 10.664h1.033c.838 0 1.517.68 1.517 1.52v-5.89c0-.92-.744-1.665-1.662-1.665h-.689a5.82 5.82 0 0 1-5.563-4.12l-.22-.71a.83.83 0 0 0-.793-.589z"/><path fill="url(#i03ea2c-idaba5e-paint8_linear_64423_1136)" d="M32.297 19.415h-.689a5.77 5.77 0 0 1-3.233-.99v6.649c.973.245 1.99.38 3.038.38h1.033c.839 0 1.517.68 1.517 1.52v-5.89c0-.92-.743-1.665-1.661-1.665z" opacity=".4"/><path fill="url(#i03ea2c-idaba5e-paint9_linear_64423_1136)" d="M19.828 14a.693.693 0 0 0-.684.79c.888 6.124 6.127 10.664 12.305 10.664h1.032c.839 0 1.517.68 1.517 1.52v-5.89c0-.92-.743-1.665-1.661-1.665h-.689a5.82 5.82 0 0 1-5.563-4.12l-.22-.709a.83.83 0 0 0-.793-.59z" opacity=".7"/><defs><linearGradient id="i03ea2c-idaba5e-paint0_linear_64423_1136" x1="15.556" x2="20.362" y1="5" y2="43.455" gradientUnits="userSpaceOnUse"><stop stop-color="#fff"/><stop offset="1" stop-color="#EBEBEB"/></linearGradient><radialGradient id="i03ea2c-idaba5e-paint1_radial_64423_1136" cx="0" cy="0" r="1" gradientTransform="matrix(20.0556 30.0833 -30.0833 11.2812 17.139 14.896)" gradientUnits="userSpaceOnUse"><stop offset=".177" stop-color="#fff"/><stop offset="1" stop-color="#B8B8B8"/></radialGradient><linearGradient id="i03ea2c-idaba5e-paint2_linear_64423_1136" x1="17.271" x2="22.387" y1="5" y2="43.373" gradientUnits="userSpaceOnUse"><stop stop-color="#BBB"/><stop offset="1" stop-color="#888"/></linearGradient><linearGradient id="i03ea2c-idaba5e-paint3_linear_64423_1136" x1="20.272" x2="34.076" y1="34.978" y2="21.202" gradientUnits="userSpaceOnUse"><stop offset=".26" stop-color="#0D7012"/><stop offset="1" stop-color="#085714"/></linearGradient><linearGradient id="i03ea2c-idaba5e-paint4_linear_64423_1136" x1="40.705" x2="14.514" y1="25.054" y2="30.861" gradientUnits="userSpaceOnUse"><stop offset=".04" stop-color="#114A8A"/><stop offset="1" stop-color="#0C59A3" stop-opacity="0"/></linearGradient><linearGradient id="i03ea2c-idaba5e-paint5_linear_64423_1136" x1="3.572" x2="30.122" y1="23.999" y2="23.999" gradientUnits="userSpaceOnUse"><stop stop-color="#107C10"/><stop offset=".96" stop-color="#56B50E"/></linearGradient><radialGradient id="i03ea2c-idaba5e-paint6_radial_64423_1136" cx="0" cy="0" r="1" gradientTransform="matrix(2.81774 -4.22857 -10.7616 -7.19942 27.235 22.914)" gradientUnits="userSpaceOnUse"><stop stop-opacity=".3"/><stop offset="1" stop-opacity="0"/></radialGradient><linearGradient id="i03ea2c-idaba5e-paint7_linear_64423_1136" x1="34.911" x2="21.984" y1="30.828" y2="12.399" gradientUnits="userSpaceOnUse"><stop offset=".04" stop-color="#33980F"/><stop offset="1" stop-color="#BAE884"/></linearGradient><linearGradient id="i03ea2c-idaba5e-paint8_linear_64423_1136" x1="30.895" x2="33.898" y1="22.699" y2="22.699" gradientUnits="userSpaceOnUse"><stop stop-color="#E5FAC1" stop-opacity="0"/><stop offset=".56" stop-color="#E5FAC1" stop-opacity=".52"/><stop offset="1" stop-color="#E5FAC1"/></linearGradient><linearGradient id="i03ea2c-idaba5e-paint9_linear_64423_1136" x1="18.471" x2="26.267" y1="4.546" y2="18.016" gradientUnits="userSpaceOnUse"><stop offset=".14" stop-color="#FDE100"/><stop offset=".98" stop-color="#FFC600" stop-opacity="0"/></linearGradient></defs></svg>