<svg xmlns="http://www.w3.org/2000/svg" width="48" height="48" fill="currentColor"><path fill="url(#i3303d9-a)" fill-rule="evenodd" d="M12 3.552h24c1.657 0 3.394 1.155 3.394 2.862V31.57c0 1.046-.653 2.076-1.54 2.717L39 33.812v9.125l-1.313 1.5H11l-2.188-1.5V37.25l1.97-1.744c-.904.486-1.753 1.198-2.315 1.789V9.229c0-2.56 1.048-5.677 3.533-5.677" clip-rule="evenodd"/><path fill="url(#i3303d9-b)" fill-opacity=".2" fill-rule="evenodd" d="M12 3.552h24c1.657 0 3.394 1.155 3.394 2.862V31.57c0 1.046-.653 2.076-1.54 2.717L39 33.812v9.125l-1.313 1.5H11l-2.188-1.5V37.25l1.97-1.744c-.904.486-1.753 1.198-2.315 1.789V9.229c0-2.56 1.048-5.677 3.533-5.677" clip-rule="evenodd"/><path fill="url(#i3303d9-c)" fill-rule="evenodd" d="M8 40a5 5 0 0 0 5 5h23a4 4 0 0 0 4-4V7a4 4 0 0 0-4-4H12a4 4 0 0 0-4 4zm4-36h24a3 3 0 0 1 3 3v24a3.5 3.5 0 0 1-3.5 3.5h-22c-1.86 0-3.505.923-4.5 2.337V7a3 3 0 0 1 3-3M9 40a4 4 0 0 0 4 4h23a3 3 0 0 0 3-3v-2.171a4.5 4.5 0 0 1-3.5 1.671h-23a.5.5 0 0 1 0-1h23A3.5 3.5 0 0 0 39 36v-2.171a4.5 4.5 0 0 1-3.5 1.671h-22A4.5 4.5 0 0 0 9 40" clip-rule="evenodd"/><path fill="url(#i3303d9-d)" d="M27.066 11.021a.5.5 0 0 1 .335.623l-4.846 16.153a.5.5 0 1 1-.958-.288l4.846-16.152a.5.5 0 0 1 .623-.336"/><path fill="url(#i3303d9-e)" d="M29.8 14.377a.5.5 0 0 1 .708 0l4.775 4.775a.6.6 0 0 1 0 .848l-4.775 4.776a.5.5 0 0 1-.707-.707l4.492-4.493-4.492-4.492a.5.5 0 0 1 0-.707Z"/><path fill="url(#i3303d9-f)" d="M18.492 14.377a.5.5 0 0 1 .707.707l-4.492 4.492 4.492 4.492a.5.5 0 0 1-.707.708L13.717 20a.6.6 0 0 1 0-.848z"/><defs><linearGradient id="i3303d9-a" x1="17.058" x2="23.817" y1="3.552" y2="44.456" gradientUnits="userSpaceOnUse"><stop stop-color="#fff"/><stop offset="1" stop-color="#EBEBEB"/></linearGradient><linearGradient id="i3303d9-c" x1="18.333" x2="25.663" y1="3" y2="44.884" gradientUnits="userSpaceOnUse"><stop stop-color="#BBB"/><stop offset="1" stop-color="#888"/></linearGradient><linearGradient id="i3303d9-d" x1="13.541" x2="30.192" y1="11" y2="32.275" gradientUnits="userSpaceOnUse"><stop stop-color="#4BA446"/><stop offset="1" stop-color="#3F7D35"/></linearGradient><linearGradient id="i3303d9-e" x1="13.541" x2="30.192" y1="11" y2="32.275" gradientUnits="userSpaceOnUse"><stop stop-color="#4BA446"/><stop offset="1" stop-color="#3F7D35"/></linearGradient><linearGradient id="i3303d9-f" x1="13.541" x2="30.192" y1="11" y2="32.275" gradientUnits="userSpaceOnUse"><stop stop-color="#4BA446"/><stop offset="1" stop-color="#3F7D35"/></linearGradient><radialGradient id="i3303d9-b" cx="0" cy="0" r="1" gradientTransform="matrix(16.32278 32.36778 -24.40008 12.30474 18.346 14.2)" gradientUnits="userSpaceOnUse"><stop offset=".177" stop-color="#fff"/><stop offset="1" stop-color="#B8B8B8"/></radialGradient></defs></svg>