<svg xmlns="http://www.w3.org/2000/svg" width="48" height="48" fill="currentColor"><path fill="url(#idcdee6-a)" d="M8 8a5 5 0 0 1 5-5h22a5 5 0 0 1 5 5v32a5 5 0 0 1-5 5H13a5 5 0 0 1-5-5z"/><path fill="url(#idcdee6-b)" fill-opacity=".2" d="M8 8a5 5 0 0 1 5-5h22a5 5 0 0 1 5 5v32a5 5 0 0 1-5 5H13a5 5 0 0 1-5-5z"/><path fill="url(#idcdee6-c)" fill-rule="evenodd" d="M35 4H13a4 4 0 0 0-4 4v32a4 4 0 0 0 4 4h22a4 4 0 0 0 4-4V8a4 4 0 0 0-4-4M13 3a5 5 0 0 0-5 5v32a5 5 0 0 0 5 5h22a5 5 0 0 0 5-5V8a5 5 0 0 0-5-5z" clip-rule="evenodd"/><path fill="url(#idcdee6-d)" d="M20 21.156q0-.02.002-.04A8.28 8.28 0 0 1 28.282 13H30.5a.5.5 0 0 1 0 1h-2.219A7.28 7.28 0 0 0 21 21.281V22a4 4 0 0 1-4 4h-2.5a.5.5 0 0 1 0-1H17a3 3 0 0 0 3-3z"/><path fill="url(#idcdee6-e)" d="M23.5 23a6 6 0 0 1 6-6h5a.5.5 0 0 1 0 1h-5a5 5 0 0 0-5 5v.656a.5.5 0 0 1-.01.099 6.6 6.6 0 0 1-.198 1.29 6.5 6.5 0 0 0-2.096 3.361A6.58 6.58 0 0 1 17.893 30H14.5a.5.5 0 0 1 0-1h3.393a5.607 5.607 0 0 0 5.607-5.607z"/><path fill="url(#idcdee6-f)" d="M22.36 32.138a8.3 8.3 0 0 1-3.697.862H17.5a.5.5 0 0 0 0 1h1.163a9.3 9.3 0 0 0 4.099-.945 6.5 6.5 0 0 1-.402-.917"/><path fill="url(#idcdee6-g)" d="M28.206 23.506A2.5 2.5 0 0 1 30.5 22h4a.5.5 0 0 0 0-1h-4a3.5 3.5 0 0 0-3.396 2.65 6.5 6.5 0 0 1 1.102-.144"/><path fill="url(#idcdee6-h)" fill-rule="evenodd" d="M23.837 28.97a2 2 0 0 0 1.441-2.495l-.198-.687a5.3 5.3 0 0 1 1.483-.912l.499.525a2 2 0 0 0 2.899 0l.493-.518a5.3 5.3 0 0 1 1.484.921l-.186.631a2 2 0 0 0 1.45 2.51l.539.13a5.7 5.7 0 0 1 .006 1.808l-.584.144a2 2 0 0 0-1.44 2.496l.197.686a5.3 5.3 0 0 1-1.483.913l-.498-.525a2 2 0 0 0-2.9 0l-.492.519a5.3 5.3 0 0 1-1.485-.922l.187-.631a2 2 0 0 0-1.45-2.51l-.54-.13a5.7 5.7 0 0 1-.006-1.808zM29.95 30c0 .828-.65 1.5-1.45 1.5s-1.45-.672-1.45-1.5c0-.83.65-1.5 1.45-1.5s1.45.67 1.45 1.5" clip-rule="evenodd"/><defs><linearGradient id="idcdee6-a" x1="16.889" x2="23.785" y1="3" y2="45.035" gradientUnits="userSpaceOnUse"><stop stop-color="#fff"/><stop offset="1" stop-color="#EBEBEB"/></linearGradient><linearGradient id="idcdee6-c" x1="18.333" x2="25.663" y1="3" y2="44.884" gradientUnits="userSpaceOnUse"><stop stop-color="#BBB"/><stop offset="1" stop-color="#888"/></linearGradient><linearGradient id="idcdee6-d" x1="14" x2="35" y1="13" y2="34" gradientUnits="userSpaceOnUse"><stop stop-color="#E03F8F"/><stop offset="1" stop-color="#BD1E7B"/></linearGradient><linearGradient id="idcdee6-e" x1="14" x2="35" y1="13" y2="34" gradientUnits="userSpaceOnUse"><stop stop-color="#E03F8F"/><stop offset="1" stop-color="#BD1E7B"/></linearGradient><linearGradient id="idcdee6-f" x1="14" x2="35" y1="13" y2="34" gradientUnits="userSpaceOnUse"><stop stop-color="#E03F8F"/><stop offset="1" stop-color="#BD1E7B"/></linearGradient><linearGradient id="idcdee6-g" x1="14" x2="35" y1="13" y2="34" gradientUnits="userSpaceOnUse"><stop stop-color="#E03F8F"/><stop offset="1" stop-color="#BD1E7B"/></linearGradient><linearGradient id="idcdee6-h" x1="23.185" x2="33.424" y1="24.876" y2="35.499" gradientUnits="userSpaceOnUse"><stop stop-color="#E03F8F"/><stop offset="1" stop-color="#BD1E7B"/></linearGradient><radialGradient id="idcdee6-b" cx="0" cy="0" r="1" gradientTransform="matrix(16.88908 33.24991 -25.17214 12.78603 18.222 13.938)" gradientUnits="userSpaceOnUse"><stop offset=".177" stop-color="#fff"/><stop offset="1" stop-color="#B8B8B8"/></radialGradient></defs></svg>