<svg xmlns="http://www.w3.org/2000/svg" width="48" height="48" fill="currentColor"><path fill="url(#i6d1d3b-a)" d="M5 10a5 5 0 0 1 5-5h28a5 5 0 0 1 5 5v28a5 5 0 0 1-5 5H10a5 5 0 0 1-5-5z"/><path fill="url(#i6d1d3b-b)" fill-opacity=".2" d="M5 10a5 5 0 0 1 5-5h28a5 5 0 0 1 5 5v28a5 5 0 0 1-5 5H10a5 5 0 0 1-5-5z"/><path fill="url(#i6d1d3b-c)" fill-rule="evenodd" d="M38 6H10a4 4 0 0 0-4 4v28a4 4 0 0 0 4 4h28a4 4 0 0 0 4-4V10a4 4 0 0 0-4-4M10 5a5 5 0 0 0-5 5v28a5 5 0 0 0 5 5h28a5 5 0 0 0 5-5V10a5 5 0 0 0-5-5z" clip-rule="evenodd"/><path fill="url(#i6d1d3b-d)" fill-rule="evenodd" d="M15.5 16a1.5 1.5 0 0 0-1.5 1.5v13a1.5 1.5 0 0 0 3 0v-2h14v2a1.5 1.5 0 0 0 3 0v-13a1.5 1.5 0 0 0-3 0v2H17v-2a1.5 1.5 0 0 0-1.5-1.5m.5 14.5v-13a.5.5 0 0 0-1 0v13a.5.5 0 0 0 1 0m17-13v13a.5.5 0 0 1-1 0v-13a.5.5 0 0 1 1 0" clip-rule="evenodd"/><defs><linearGradient id="i6d1d3b-a" x1="15.556" x2="20.362" y1="5" y2="43.455" gradientUnits="userSpaceOnUse"><stop stop-color="#fff"/><stop offset="1" stop-color="#EBEBEB"/></linearGradient><linearGradient id="i6d1d3b-c" x1="17.271" x2="22.387" y1="5" y2="43.373" gradientUnits="userSpaceOnUse"><stop stop-color="#BBB"/><stop offset="1" stop-color="#888"/></linearGradient><linearGradient id="i6d1d3b-d" x1="14" x2="29.61" y1="16" y2="35.512" gradientUnits="userSpaceOnUse"><stop stop-color="#4BA446"/><stop offset="1" stop-color="#3F7D35"/></linearGradient><radialGradient id="i6d1d3b-b" cx="0" cy="0" r="1" gradientTransform="rotate(56.31 -5.347 23.46)scale(36.1557 31.2886)" gradientUnits="userSpaceOnUse"><stop offset=".177" stop-color="#fff"/><stop offset="1" stop-color="#B8B8B8"/></radialGradient></defs></svg>