<svg xmlns="http://www.w3.org/2000/svg" width="48" height="48" fill="currentColor"><path fill="url(#if795b9-a)" d="M5 10a5 5 0 0 1 5-5h28a5 5 0 0 1 5 5v28a5 5 0 0 1-5 5H10a5 5 0 0 1-5-5z"/><path fill="url(#if795b9-b)" fill-opacity=".2" d="M5 10a5 5 0 0 1 5-5h28a5 5 0 0 1 5 5v28a5 5 0 0 1-5 5H10a5 5 0 0 1-5-5z"/><path fill="url(#if795b9-c)" fill-rule="evenodd" d="M38 6H10a4 4 0 0 0-4 4v28a4 4 0 0 0 4 4h28a4 4 0 0 0 4-4V10a4 4 0 0 0-4-4M10 5a5 5 0 0 0-5 5v28a5 5 0 0 0 5 5h28a5 5 0 0 0 5-5V10a5 5 0 0 0-5-5z" clip-rule="evenodd"/><path fill="url(#if795b9-d)" d="M32.367 15.155c.378.377.629.824.633 1.332v.013"/><path fill="url(#if795b9-e)" d="M33 16.513c-.005.59-.342 1.099-.826 1.509-.489.414-1.17.767-1.973 1.054C28.593 19.652 26.4 20 24 20s-4.593-.348-6.201-.924c-.803-.288-1.484-.64-1.973-1.054-.487-.413-.826-.926-.826-1.522l.003-.101v-.01c.04-.549.366-1.024.823-1.411.489-.414 1.17-.767 1.973-1.054C19.407 13.348 21.6 13 24 13s4.593.348 6.201.924c.803.287 1.484.64 1.973 1.054q.101.085.193.177"/><path fill="url(#if795b9-f)" d="M32.82 18.785q.09-.077.18-.161v12.48h-.002c-.024.623-.342 1.173-.813 1.631-.488.475-1.17.88-1.973 1.21-1.607.659-3.796 1.055-6.196 1.055s-4.597-.396-6.212-1.056c-.806-.329-1.492-.733-1.983-1.208-.47-.453-.79-.999-.819-1.616H15V18.624q.09.084.18.161c.614.52 1.416.923 2.282 1.233 1.742.624 4.054.982 6.538.982s4.796-.358 6.538-.982c.866-.31 1.668-.713 2.282-1.233"/><path fill="#F5F5F5" fill-rule="evenodd" d="M33.156 43.664a1.5 1.5 0 1 0 2.121 2.122l.624-.624a1.5 1.5 0 0 0 2.558.977l2.121-2.12c.227-.227.366-.508.417-.8l1.456 1.42c.95.926 2.547.253 2.547-1.075V35.5a1.5 1.5 0 0 0-1.5-1.5h-8.27c-1.346 0-2.011 1.635-1.048 2.574l1.43 1.395a1.5 1.5 0 0 0-.688.392l-2.121 2.122a1.5 1.5 0 0 0 .976 2.558z" clip-rule="evenodd"/><path fill="url(#if795b9-g)" d="M44 35.5a.5.5 0 0 0-.5-.5h-8.27a.5.5 0 0 0-.35.858l8.271 8.064a.5.5 0 0 0 .85-.358V35.5Z"/><path fill="url(#if795b9-h)" d="M38.106 41.543a.5.5 0 1 0-.707-.707l-3.536 3.535a.5.5 0 1 0 .707.708z"/><path fill="url(#if795b9-i)" d="m33.51 41.19 2.121-2.122a.5.5 0 0 1 .707.707l-2.121 2.122a.5.5 0 0 1-.707-.707"/><path fill="url(#if795b9-j)" d="m39.166 42.604-2.121 2.121a.5.5 0 1 0 .707.707l2.121-2.12a.5.5 0 1 0-.707-.708"/><defs><linearGradient id="if795b9-a" x1="15.556" x2="20.362" y1="5" y2="43.455" gradientUnits="userSpaceOnUse"><stop stop-color="#fff"/><stop offset="1" stop-color="#EBEBEB"/></linearGradient><linearGradient id="if795b9-c" x1="17.271" x2="22.387" y1="5" y2="43.373" gradientUnits="userSpaceOnUse"><stop stop-color="#BBB"/><stop offset="1" stop-color="#888"/></linearGradient><linearGradient id="if795b9-d" x1="15" x2="36.564" y1="13" y2="30.644" gradientUnits="userSpaceOnUse"><stop stop-color="#008EE6"/><stop offset="1" stop-color="#006094"/></linearGradient><linearGradient id="if795b9-e" x1="15" x2="36.564" y1="13" y2="30.644" gradientUnits="userSpaceOnUse"><stop stop-color="#008EE6"/><stop offset="1" stop-color="#006094"/></linearGradient><linearGradient id="if795b9-f" x1="15" x2="36.564" y1="13" y2="30.644" gradientUnits="userSpaceOnUse"><stop stop-color="#008EE6"/><stop offset="1" stop-color="#006094"/></linearGradient><linearGradient id="if795b9-g" x1="33.363" x2="43.942" y1="35" y2="45.637" gradientUnits="userSpaceOnUse"><stop stop-color="#008EE6"/><stop offset="1" stop-color="#006094"/></linearGradient><linearGradient id="if795b9-h" x1="33.363" x2="43.942" y1="35" y2="45.637" gradientUnits="userSpaceOnUse"><stop stop-color="#008EE6"/><stop offset="1" stop-color="#006094"/></linearGradient><linearGradient id="if795b9-i" x1="33.363" x2="43.942" y1="35" y2="45.637" gradientUnits="userSpaceOnUse"><stop stop-color="#008EE6"/><stop offset="1" stop-color="#006094"/></linearGradient><linearGradient id="if795b9-j" x1="33.363" x2="43.942" y1="35" y2="45.637" gradientUnits="userSpaceOnUse"><stop stop-color="#008EE6"/><stop offset="1" stop-color="#006094"/></linearGradient><radialGradient id="if795b9-b" cx="0" cy="0" r="1" gradientTransform="rotate(56.31 -5.347 23.46)scale(36.1557 31.2886)" gradientUnits="userSpaceOnUse"><stop offset=".177" stop-color="#fff"/><stop offset="1" stop-color="#B8B8B8"/></radialGradient></defs></svg>