<svg xmlns="http://www.w3.org/2000/svg" width="48" height="48" fill="currentColor"><path fill="url(#ic05dbe-a)" d="M5 10a5 5 0 0 1 5-5h28a5 5 0 0 1 5 5v28a5 5 0 0 1-5 5H10a5 5 0 0 1-5-5z"/><path fill="url(#ic05dbe-b)" fill-opacity=".2" d="M5 10a5 5 0 0 1 5-5h28a5 5 0 0 1 5 5v28a5 5 0 0 1-5 5H10a5 5 0 0 1-5-5z"/><path fill="url(#ic05dbe-c)" fill-rule="evenodd" d="M38 6H10a4 4 0 0 0-4 4v28a4 4 0 0 0 4 4h28a4 4 0 0 0 4-4V10a4 4 0 0 0-4-4M10 5a5 5 0 0 0-5 5v28a5 5 0 0 0 5 5h28a5 5 0 0 0 5-5V10a5 5 0 0 0-5-5z" clip-rule="evenodd"/><path fill="url(#ic05dbe-d)" d="M24 36c6.627 0 12-5.373 12-12s-5.373-12-12-12-12 5.373-12 12 5.373 12 12 12"/><path fill="#F5BCD8" d="M27.699 16.585a.75.75 0 0 1-.971.427 7.502 7.502 0 0 0-8.031 12.291.75.75 0 0 1-1.06 1.061 9 9 0 0 1 9.635-14.75.75.75 0 0 1 .427.971m2.429 1.144a.75.75 0 0 0-.953-.017l-.265.21a500 500 0 0 0-2.865 2.297c-.799.646-1.617 1.315-2.27 1.862-.327.273-.615.519-.841.718a6 6 0 0 0-.515.492 2.25 2.25 0 1 0 3.422 2.922c.108-.127.256-.349.406-.585.16-.254.358-.578.577-.943.438-.731.97-1.644 1.483-2.534a447 447 0 0 0 1.82-3.19l.167-.293a.75.75 0 0 0-.166-.94Z"/><path fill="#F5F5F5" fill-rule="evenodd" d="M33.156 43.664a1.5 1.5 0 1 0 2.121 2.122l.624-.624a1.5 1.5 0 0 0 2.558.977l2.121-2.12c.227-.227.366-.508.417-.8l1.456 1.42c.95.926 2.547.253 2.547-1.075V35.5a1.5 1.5 0 0 0-1.5-1.5h-8.27c-1.346 0-2.011 1.635-1.048 2.574l1.43 1.395a1.5 1.5 0 0 0-.688.392l-2.121 2.122a1.5 1.5 0 0 0 .976 2.558z" clip-rule="evenodd"/><path fill="url(#ic05dbe-e)" d="M44 35.5a.5.5 0 0 0-.5-.5h-8.271a.5.5 0 0 0-.35.858l8.272 8.064a.5.5 0 0 0 .849-.358z"/><path fill="url(#ic05dbe-f)" d="M38.105 41.543a.5.5 0 1 0-.707-.707l-3.535 3.535a.5.5 0 1 0 .707.707z"/><path fill="url(#ic05dbe-g)" d="m33.51 41.19 2.12-2.122a.5.5 0 0 1 .708.707l-2.121 2.122a.5.5 0 1 1-.708-.707Z"/><path fill="url(#ic05dbe-h)" d="m39.166 42.604-2.121 2.121a.5.5 0 1 0 .707.707l2.121-2.12a.5.5 0 1 0-.707-.708"/><defs><linearGradient id="ic05dbe-a" x1="15.556" x2="20.362" y1="5" y2="43.455" gradientUnits="userSpaceOnUse"><stop stop-color="#fff"/><stop offset="1" stop-color="#EBEBEB"/></linearGradient><linearGradient id="ic05dbe-c" x1="17.271" x2="22.387" y1="5" y2="43.373" gradientUnits="userSpaceOnUse"><stop stop-color="#BBB"/><stop offset="1" stop-color="#888"/></linearGradient><linearGradient id="ic05dbe-d" x1="12" x2="36" y1="12" y2="36" gradientUnits="userSpaceOnUse"><stop stop-color="#E03F8F"/><stop offset="1" stop-color="#BD1E7B"/></linearGradient><linearGradient id="ic05dbe-e" x1="33.363" x2="43.942" y1="35" y2="45.637" gradientUnits="userSpaceOnUse"><stop stop-color="#E03F8F"/><stop offset="1" stop-color="#BD1E7B"/></linearGradient><linearGradient id="ic05dbe-f" x1="33.363" x2="43.942" y1="35" y2="45.637" gradientUnits="userSpaceOnUse"><stop stop-color="#E03F8F"/><stop offset="1" stop-color="#BD1E7B"/></linearGradient><linearGradient id="ic05dbe-g" x1="33.363" x2="43.942" y1="35" y2="45.637" gradientUnits="userSpaceOnUse"><stop stop-color="#E03F8F"/><stop offset="1" stop-color="#BD1E7B"/></linearGradient><linearGradient id="ic05dbe-h" x1="33.363" x2="43.942" y1="35" y2="45.637" gradientUnits="userSpaceOnUse"><stop stop-color="#E03F8F"/><stop offset="1" stop-color="#BD1E7B"/></linearGradient><radialGradient id="ic05dbe-b" cx="0" cy="0" r="1" gradientTransform="rotate(56.31 -5.347 23.46)scale(36.1557 31.2886)" gradientUnits="userSpaceOnUse"><stop offset=".177" stop-color="#fff"/><stop offset="1" stop-color="#B8B8B8"/></radialGradient></defs></svg>