<svg xmlns="http://www.w3.org/2000/svg" width="48" height="48" fill="currentColor"><path fill="url(#i56a748-a)" d="M8 8a5 5 0 0 1 5-5h22a5 5 0 0 1 5 5v32a5 5 0 0 1-5 5H13a5 5 0 0 1-5-5z"/><path fill="url(#i56a748-b)" fill-opacity=".2" d="M8 8a5 5 0 0 1 5-5h22a5 5 0 0 1 5 5v32a5 5 0 0 1-5 5H13a5 5 0 0 1-5-5z"/><path fill="url(#i56a748-c)" fill-rule="evenodd" d="M35 4H13a4 4 0 0 0-4 4v32a4 4 0 0 0 4 4h22a4 4 0 0 0 4-4V8a4 4 0 0 0-4-4M13 3a5 5 0 0 0-5 5v32a5 5 0 0 0 5 5h22a5 5 0 0 0 5-5V8a5 5 0 0 0-5-5z" clip-rule="evenodd"/><path fill="url(#i56a748-d)" d="M23.154 34H32a2 2 0 0 0 2-2v-9.11a2 2 0 0 0-.662-1.486l-8-7.2a2 2 0 0 0-2.675 0l-8 7.2A2 2 0 0 0 14 22.891V32a2 2 0 0 0 2 2h8.846"/><path fill="#B4CDF8" d="M19.75 24.5a1.25 1.25 0 1 1-2.5 0 1.25 1.25 0 0 1 2.5 0m5.5 0a1.25 1.25 0 1 1-2.5 0 1.25 1.25 0 0 1 2.5 0M24 30.75a1.25 1.25 0 1 0 0-2.5 1.25 1.25 0 0 0 0 2.5m-4.25-1.25a1.25 1.25 0 1 1-2.5 0 1.25 1.25 0 0 1 2.5 0m9.75-3.75a1.25 1.25 0 1 0 0-2.5 1.25 1.25 0 0 0 0 2.5m1.25 3.75a1.25 1.25 0 1 1-2.5 0 1.25 1.25 0 0 1 2.5 0"/><defs><linearGradient id="i56a748-a" x1="16.889" x2="23.785" y1="3" y2="45.035" gradientUnits="userSpaceOnUse"><stop stop-color="#fff"/><stop offset="1" stop-color="#EBEBEB"/></linearGradient><linearGradient id="i56a748-c" x1="18.333" x2="25.663" y1="3" y2="44.884" gradientUnits="userSpaceOnUse"><stop stop-color="#BBB"/><stop offset="1" stop-color="#888"/></linearGradient><linearGradient id="i56a748-d" x1="14" x2="34.975" y1="13" y2="32.976" gradientUnits="userSpaceOnUse"><stop stop-color="#3477EA"/><stop offset="1" stop-color="#1D53A4"/></linearGradient><radialGradient id="i56a748-b" cx="0" cy="0" r="1" gradientTransform="matrix(16.88908 33.24991 -25.17214 12.78603 18.222 13.938)" gradientUnits="userSpaceOnUse"><stop offset=".177" stop-color="#fff"/><stop offset="1" stop-color="#B8B8B8"/></radialGradient></defs></svg>