<svg xmlns="http://www.w3.org/2000/svg" width="48" height="48" fill="currentColor"><path fill="url(#i49f2a9-a)" d="M5 10a5 5 0 0 1 5-5h28a5 5 0 0 1 5 5v28a5 5 0 0 1-5 5H10a5 5 0 0 1-5-5z"/><path fill="url(#i49f2a9-b)" fill-opacity=".2" d="M5 10a5 5 0 0 1 5-5h28a5 5 0 0 1 5 5v28a5 5 0 0 1-5 5H10a5 5 0 0 1-5-5z"/><path fill="url(#i49f2a9-c)" fill-rule="evenodd" d="M38 6H10a4 4 0 0 0-4 4v28a4 4 0 0 0 4 4h28a4 4 0 0 0 4-4V10a4 4 0 0 0-4-4M10 5a5 5 0 0 0-5 5v28a5 5 0 0 0 5 5h28a5 5 0 0 0 5-5V10a5 5 0 0 0-5-5z" clip-rule="evenodd"/><path fill="url(#i49f2a9-d)" d="M32.367 15.155c.378.377.629.824.633 1.332v.013"/><path fill="url(#i49f2a9-e)" d="M33 16.513c-.005.59-.342 1.099-.826 1.509-.489.414-1.17.767-1.973 1.054C28.593 19.652 26.4 20 24 20s-4.593-.348-6.201-.924c-.803-.288-1.484-.64-1.973-1.054-.487-.413-.826-.926-.826-1.522l.003-.101v-.01c.04-.549.366-1.024.823-1.411.489-.414 1.17-.767 1.973-1.054C19.407 13.348 21.6 13 24 13s4.593.348 6.201.924c.803.287 1.484.64 1.973 1.054q.101.085.193.177"/><path fill="url(#i49f2a9-f)" d="M32.82 18.785q.09-.077.18-.161v12.48h-.002c-.024.623-.342 1.173-.813 1.631-.488.475-1.17.88-1.973 1.21-1.607.659-3.796 1.055-6.196 1.055s-4.597-.396-6.212-1.056c-.806-.329-1.492-.733-1.983-1.208-.47-.453-.79-.999-.819-1.616H15V18.624q.09.084.18.161c.614.52 1.416.922 2.282 1.232 1.742.625 4.054.983 6.538.983s4.796-.358 6.538-.983c.866-.31 1.668-.712 2.282-1.232"/><path fill="url(#i49f2a9-g)" d="M38 35.761a.85.85 0 0 0-1.403-.645l-4.654 3.989a.85.85 0 0 0-.086 1.205l4.654 5.318c.516.591 1.49.225 1.49-.56v-9.307Z"/><path fill="url(#i49f2a9-h)" d="M39 35.761a.85.85 0 0 1 1.403-.645l4.654 3.989a.85.85 0 0 1 .086 1.205l-4.654 5.318c-.516.591-1.49.225-1.49-.56z"/><path fill="#F5F5F5" fill-rule="evenodd" d="m35.946 34.356-4.653 3.99a1.85 1.85 0 0 0-.189 2.622l4.654 5.319c.783.894 2.046.781 2.742.054.696.727 1.96.84 2.742-.054l4.654-5.319a1.85 1.85 0 0 0-.188-2.623l-4.654-3.989c-.81-.694-1.92-.53-2.554.135-.634-.666-1.743-.83-2.554-.135m-4.003 4.749 4.654-3.99a.85.85 0 0 1 1.403.646v9.333c-.021.767-.978 1.118-1.49.534l-4.653-5.318a.85.85 0 0 1 .086-1.205m8.46-3.99a.85.85 0 0 0-1.403.646v9.333c.021.767.978 1.118 1.49.534l4.653-5.318a.85.85 0 0 0-.086-1.205z" clip-rule="evenodd"/><defs><linearGradient id="i49f2a9-a" x1="15.556" x2="20.362" y1="5" y2="43.455" gradientUnits="userSpaceOnUse"><stop stop-color="#fff"/><stop offset="1" stop-color="#EBEBEB"/></linearGradient><linearGradient id="i49f2a9-c" x1="17.271" x2="22.387" y1="5" y2="43.373" gradientUnits="userSpaceOnUse"><stop stop-color="#BBB"/><stop offset="1" stop-color="#888"/></linearGradient><linearGradient id="i49f2a9-d" x1="15" x2="36.564" y1="13" y2="30.644" gradientUnits="userSpaceOnUse"><stop stop-color="#008EE6"/><stop offset="1" stop-color="#006094"/></linearGradient><linearGradient id="i49f2a9-e" x1="15" x2="36.564" y1="13" y2="30.644" gradientUnits="userSpaceOnUse"><stop stop-color="#008EE6"/><stop offset="1" stop-color="#006094"/></linearGradient><linearGradient id="i49f2a9-f" x1="15" x2="36.564" y1="13" y2="30.644" gradientUnits="userSpaceOnUse"><stop stop-color="#008EE6"/><stop offset="1" stop-color="#006094"/></linearGradient><linearGradient id="i49f2a9-g" x1="31.646" x2="42.398" y1="34.909" y2="48.294" gradientUnits="userSpaceOnUse"><stop stop-color="#008EE6"/><stop offset="1" stop-color="#006094"/></linearGradient><linearGradient id="i49f2a9-h" x1="31.647" x2="42.398" y1="34.909" y2="48.294" gradientUnits="userSpaceOnUse"><stop stop-color="#008EE6"/><stop offset="1" stop-color="#006094"/></linearGradient><radialGradient id="i49f2a9-b" cx="0" cy="0" r="1" gradientTransform="rotate(56.31 -5.347 23.46)scale(36.1557 31.2886)" gradientUnits="userSpaceOnUse"><stop offset=".177" stop-color="#fff"/><stop offset="1" stop-color="#B8B8B8"/></radialGradient></defs></svg>