<svg xmlns="http://www.w3.org/2000/svg" width="24" height="24" viewBox="0 0 24 24" fill="none"><path fill-rule="evenodd" clip-rule="evenodd" d="M17.9999 7V8.00961C19.6781 8.13727 20.9999 9.53933 20.9999 11.2501V18.7501C20.9999 20.5451 19.5449 22.0001 17.7499 22.0001H5.24994C4.65451 22.0001 4.11266 21.7691 3.70996 21.3914L6.49994 19L15.4999 17L16.9999 16.5L17.3411 7H17.9999Z" fill="url(#paint0_linear_1862_27961)"></path><path fill-rule="evenodd" clip-rule="evenodd" d="M3.73125 21.4111C3.45591 21.1594 3.2434 20.8401 3.12012 20.4793L4.49995 14.5L13.9999 4H14.9999V4.00014H15.7499C16.9516 4.00014 17.9333 4.94219 17.9967 6.12807C17.9986 6.16369 17.9997 6.19954 17.9999 6.23559C17.9999 6.24044 17.9999 6.24529 17.9999 6.25014V8.00961V15.751C17.9999 17.0489 16.9484 18.0619 15.6515 18.112C15.4971 18.118 15.3267 18.1236 15.1424 18.1297C13.4736 18.1847 10.6659 18.2773 8.34312 19C5.86433 19.7713 4.74081 20.5968 3.73125 21.4111Z" fill="url(#paint1_radial_1862_27961)"></path><path fill-rule="evenodd" clip-rule="evenodd" d="M15 2.73342C15 2.03593 14.5958 1.42428 14.0133 1.15133C13.6771 0.998475 13.2811 0.95917 12.868 1.08413C12.3598 1.23784 11.7184 1.45623 11.0075 1.75534C9.69868 2.31639 8.17554 3.13833 6.81091 4.30719C6.24198 4.79451 5.69967 5.34322 5.21184 5.95871C3.9144 7.61202 3 9.75637 3 12.5001V19.752C3 20.1056 3.08151 20.4398 3.22671 20.7371C4.49313 17.9117 6.32035 16.9455 8 16.0574C9.82623 15.0918 11.6541 14.9233 12.7854 14.8191L12.8793 14.8104C14.0015 14.7064 15 13.6155 15 12.6183V4.00014V2.73342Z" fill="url(#paint2_radial_1862_27961)"></path><defs><linearGradient id="paint0_linear_1862_27961" x1="16.2653" y1="11.505" x2="60.794" y2="79.2949" gradientUnits="userSpaceOnUse"><stop offset="0.0347811" stop-color="#5029CE"></stop><stop offset="0.169224" stop-color="#C570FB"></stop></linearGradient><radialGradient id="paint1_radial_1862_27961" cx="0" cy="0" r="1" gradientUnits="userSpaceOnUse" gradientTransform="translate(16.9567 20.3061) rotate(-130.515) scale(21.4487 37.2686)"><stop offset="0.224919" stop-color="#E331D8"></stop><stop offset="0.688249" stop-color="#DB374F"></stop></radialGradient><radialGradient id="paint2_radial_1862_27961" cx="0" cy="0" r="1" gradientUnits="userSpaceOnUse" gradientTransform="translate(5.26823 -2.93685) rotate(63.6351) scale(22.3749 19.9104)"><stop stop-color="#8C48FF"></stop><stop offset="0.384017" stop-color="#F2598A"></stop><stop offset="0.853186" stop-color="#FFB152"></stop></radialGradient></defs></svg>
