<?xml version="1.0" encoding="UTF-8"?> <svg xmlns="http://www.w3.org/2000/svg" fill="none" viewBox="0 0 24 24"><path fill="url(#prefix__a)" d="M9.083 14.165A7.083 7.083 0 109.083 0a7.083 7.083 0 000 14.165z"></path><path fill="url(#prefix__b)" fill-opacity=".2" d="M9.083 14.165A7.083 7.083 0 109.083 0a7.083 7.083 0 000 14.165z"></path><path fill="url(#prefix__c)" fill-opacity=".31" d="M9.083 14.165A7.083 7.083 0 109.083 0a7.083 7.083 0 000 14.165z"></path><path fill="url(#prefix__d)" fill-opacity=".7" d="M9.083 14.165A7.083 7.083 0 109.083 0a7.083 7.083 0 000 14.165z"></path><path fill="url(#prefix__e)" d="M15.91 19a6 6 0 100-12 6 6 0 000 12z"></path><path fill="url(#prefix__f)" fill-opacity=".5" d="M15.91 19a6 6 0 100-12 6 6 0 000 12z"></path><path fill="url(#prefix__g)" fill-opacity=".7" d="M15.91 19a6 6 0 100-12 6 6 0 000 12z"></path><path fill="url(#prefix__h)" d="M10 24a5 5 0 100-10 5 5 0 000 10z"></path><path fill="url(#prefix__i)" fill-opacity=".32" d="M10 24a5 5 0 100-10 5 5 0 000 10z"></path><path fill="url(#prefix__j)" fill-opacity=".6" d="M10 24a5 5 0 100-10 5 5 0 000 10z"></path><rect width="10" height="10" y="11" fill="url(#prefix__k)" rx="2.25"></rect><rect width="10" height="10" y="11" fill="url(#prefix__l)" fill-opacity=".6" rx="2.25"></rect><path fill="#fff" d="M2.744 17.761l1.135-.575c.128.251.295.436.501.555.209.119.437.178.685.178.275 0 .486-.054.63-.162.145-.11.217-.277.217-.498a.553.553 0 00-.208-.437c-.14-.122-.386-.213-.74-.275-.673-.12-1.163-.327-1.469-.624a1.49 1.49 0 01-.455-1.11c0-.55.2-.99.601-1.32.401-.328.93-.493 1.587-.493.442 0 .832.088 1.169.263a2 2 0 01.801.753l-1.11.555a1.224 1.224 0 00-.397-.397 1.038 1.038 0 00-.534-.125c-.256 0-.451.054-.585.162a.52.52 0 00-.196.42c0 .149.063.28.188.393.128.111.384.201.768.272.646.118 1.127.334 1.445.647.32.31.48.703.48 1.179 0 .577-.191 1.035-.572 1.372-.382.337-.926.506-1.633.506a2.94 2.94 0 01-1.386-.324 2.167 2.167 0 01-.922-.915z"></path><defs><radialGradient id="prefix__b" cx="0" cy="0" r="1" gradientTransform="matrix(-4.1528 -10.05152 18.07214 -7.46652 11.25 16.125)" gradientUnits="userSpaceOnUse"><stop offset=".286" stop-color="#003B5D"></stop><stop offset=".612" stop-color="#004A6C" stop-opacity=".688"></stop><stop offset=".968" stop-color="#006F94" stop-opacity="0"></stop></radialGradient><radialGradient id="prefix__c" cx="0" cy="0" r="1" gradientTransform="rotate(-112.063 10.13 2.626) scale(9.1792 16.4835)" gradientUnits="userSpaceOnUse"><stop offset=".26" stop-color="#002A42"></stop><stop offset=".612" stop-color="#004261" stop-opacity=".688"></stop><stop offset=".968" stop-color="#006F94" stop-opacity="0"></stop></radialGradient><radialGradient id="prefix__d" cx="0" cy="0" r="1" gradientTransform="rotate(124.447 6.365 3.832) scale(7.67933)" gradientUnits="userSpaceOnUse"><stop stop-color="#78EDFF"></stop><stop offset="1" stop-color="#2CCFCA" stop-opacity="0"></stop></radialGradient><radialGradient id="prefix__f" cx="0" cy="0" r="1" gradientTransform="matrix(2.4375 -7 12.61243 4.39182 12.473 18)" gradientUnits="userSpaceOnUse"><stop stop-color="#004A5D"></stop><stop offset=".492" stop-color="#00556C" stop-opacity=".688"></stop><stop offset=".968" stop-color="#007A86" stop-opacity="0"></stop></radialGradient><radialGradient id="prefix__g" cx="0" cy="0" r="1" gradientTransform="rotate(124.447 7.656 8.91) scale(6.50536)" gradientUnits="userSpaceOnUse"><stop stop-color="#78EDFF"></stop><stop offset="1" stop-color="#2CCFCA" stop-opacity="0"></stop></radialGradient><radialGradient id="prefix__j" cx="0" cy="0" r="1" gradientTransform="rotate(124.447 2.6 10.65) scale(5.42114)" gradientUnits="userSpaceOnUse"><stop stop-color="#78EDFF"></stop><stop offset="1" stop-color="#2CCFCA" stop-opacity="0"></stop></radialGradient><radialGradient id="prefix__k" cx="0" cy="0" r="1" gradientTransform="rotate(45 -13.278 5.5) scale(14.1421)" gradientUnits="userSpaceOnUse"><stop offset=".063" stop-color="#00B6BD"></stop><stop offset=".89" stop-color="#00495C"></stop></radialGradient><radialGradient id="prefix__l" cx="0" cy="0" r="1" gradientTransform="matrix(0 7 -7.96875 0 5 17)" gradientUnits="userSpaceOnUse"><stop offset=".567" stop-color="#1E8581" stop-opacity="0"></stop><stop offset=".974" stop-color="#1ECBE6"></stop></radialGradient><linearGradient id="prefix__a" x1="3.771" x2="13.214" y1="1.771" y2="14.165" gradientUnits="userSpaceOnUse"><stop stop-color="#00E3DF"></stop><stop offset=".41" stop-color="#0097A8"></stop><stop offset="1" stop-color="#007791"></stop></linearGradient><linearGradient id="prefix__e" x1="11.41" x2="19.41" y1="8.5" y2="19" gradientUnits="userSpaceOnUse"><stop stop-color="#00E0D9"></stop><stop offset=".476" stop-color="#00A8B8"></stop><stop offset=".945" stop-color="#056475"></stop></linearGradient><linearGradient id="prefix__h" x1="6.5" x2="11.5" y1="14.5" y2="24.5" gradientUnits="userSpaceOnUse"><stop offset=".053" stop-color="#75FFF6"></stop><stop offset=".511" stop-color="#00C7D1"></stop><stop offset=".96" stop-color="#0096AD"></stop></linearGradient><linearGradient id="prefix__i" x1="14.977" x2="12.305" y1="24" y2="20.25" gradientUnits="userSpaceOnUse"><stop offset=".26" stop-color="#0E5A5D"></stop><stop offset=".536" stop-color="#126C6B" stop-opacity=".688"></stop><stop offset=".968" stop-color="#1C948A" stop-opacity="0"></stop></linearGradient></defs></svg> 